{
	"asset":{
		"generator":"Khronos glTF Blender I/O v4.3.47",
		"version":"2.0"
	},
	"scene":1,
	"scenes":[
		{
			"name":"FBX_Temp"
		},
		{
			"name":"Scene",
			"nodes":[
				0
			]
		}
	],
	"nodes":[
		{
			"mesh":0,
			"name":"SideWalk_CurbCorner",
			"rotation":[
				0,
				1,
				0,
				0
			],
			"scale":[
				-0.6600000262260437,
				-0.06687979400157928,
				-0.6600000262260437
			]
		}
	],
	"materials":[
		{
			"doubleSided":true,
			"name":"sidewalk",
			"pbrMetallicRoughness":{
				"metallicFactor":0,
				"roughnessFactor":0.5
			}
		}
	],
	"meshes":[
		{
			"name":"Cube.045",
			"primitives":[
				{
					"attributes":{
						"POSITION":0,
						"NORMAL":1,
						"TEXCOORD_0":2
					},
					"indices":3,
					"material":0
				}
			]
		}
	],
	"accessors":[
		{
			"bufferView":0,
			"componentType":5126,
			"count":358,
			"max":[
				4.250762462615967,
				0.3952098786830902,
				2.2652831077575684
			],
			"min":[
				-2.384185791015625e-07,
				-2.02864670753479,
				-2.0134382247924805
			],
			"type":"VEC3"
		},
		{
			"bufferView":1,
			"componentType":5126,
			"count":358,
			"type":"VEC3"
		},
		{
			"bufferView":2,
			"componentType":5126,
			"count":358,
			"type":"VEC2"
		},
		{
			"bufferView":3,
			"componentType":5123,
			"count":612,
			"type":"SCALAR"
		}
	],
	"bufferViews":[
		{
			"buffer":0,
			"byteLength":4296,
			"byteOffset":0,
			"target":34962
		},
		{
			"buffer":0,
			"byteLength":4296,
			"byteOffset":4296,
			"target":34962
		},
		{
			"buffer":0,
			"byteLength":2864,
			"byteOffset":8592,
			"target":34962
		},
		{
			"buffer":0,
			"byteLength":1224,
			"byteOffset":11456,
			"target":34963
		}
	],
	"buffers":[
		{
			"byteLength":12680,
			"uri":"Sidewalk_CurbCorner.bin"
		}
	]
}
